<?xml version="1.0" standalone="no"?>
<!DOCTYPE svg PUBLIC "-//W3C//DTD SVG 20010904//EN"
 "http://www.w3.org/TR/2001/REC-SVG-20010904/DTD/svg10.dtd">
<svg version="1.0" xmlns="http://www.w3.org/2000/svg"
 width="1024.000000pt" height="1024.000000pt" viewBox="0 0 1024.000000 1024.000000"
 preserveAspectRatio="xMidYMid meet">
<metadata>
Created by potrace 1.14, written by Peter Selinger 2001-2017
</metadata>
<g transform="translate(0.000000,1024.000000) scale(0.100000,-0.100000)"
fill="#000000" stroke="none">
<path d="M2160 8640 c-89 -19 -165 -80 -199 -160 l-21 -49 2 -3328 c3 -3193 4
-3329 21 -3364 23 -47 79 -103 126 -126 34 -17 92 -18 1111 -18 1009 0 1077 1
1107 18 45 24 99 80 125 130 l23 42 3 1127 2 1128 815 0 815 0 2 -1122 c3
-1258 -3 -1154 78 -1242 22 -24 61 -54 85 -65 45 -21 51 -21 1091 -21 790 0
1057 3 1088 12 55 16 148 109 164 164 17 59 18 6638 0 6696 -16 53 -87 131
-146 160 l-47 23 -1050 0 c-1048 0 -1050 0 -1095 -21 -57 -27 -117 -87 -144
-144 -21 -45 -21 -49 -24 -1137 l-3 -1093 -814 0 -815 0 -2 1098 -3 1097 -22
41 c-36 67 -70 101 -131 131 l-57 28 -1025 1 c-564 1 -1041 -1 -1060 -6z"/>
</g>
</svg>
